<svg width="21" height="20" viewBox="0 0 21 20" fill="none" xmlns="http://www.w3.org/2000/svg">
<path fill-rule="evenodd" clip-rule="evenodd" d="M9.46447 2.29747C10.4021 1.35979 11.6739 0.833008 13 0.833008H15.5C15.9602 0.833008 16.3333 1.2061 16.3333 1.66634V4.99967C16.3333 5.45991 15.9602 5.83301 15.5 5.83301H13V7.49967H15.5C15.7566 7.49967 15.9989 7.6179 16.1568 7.82016C16.3148 8.02243 16.3707 8.28617 16.3085 8.53512L15.4751 11.8685C15.3824 12.2394 15.0491 12.4997 14.6667 12.4997H13V18.333C13 18.7932 12.6269 19.1663 12.1667 19.1663H8.83333C8.3731 19.1663 8 18.7932 8 18.333V12.4997H6.33333C5.8731 12.4997 5.5 12.1266 5.5 11.6663V8.33301C5.5 7.87277 5.8731 7.49967 6.33333 7.49967H8V5.83301C8 4.50692 8.52678 3.23516 9.46447 2.29747ZM13 2.49967C12.1159 2.49967 11.2681 2.85086 10.643 3.47599C10.0179 4.10111 9.66667 4.94895 9.66667 5.83301V8.33301C9.66667 8.79324 9.29357 9.16634 8.83333 9.16634H7.16667V10.833H8.83333C9.29357 10.833 9.66667 11.2061 9.66667 11.6663V17.4997H11.3333V11.6663C11.3333 11.2061 11.7064 10.833 12.1667 10.833H14.016L14.4327 9.16634H12.1667C11.7064 9.16634 11.3333 8.79324 11.3333 8.33301V5.83301C11.3333 5.39098 11.5089 4.96706 11.8215 4.6545C12.134 4.34194 12.558 4.16634 13 4.16634H14.6667V2.49967H13Z" fill="#03204C"/>
</svg>
