<svg width="21" height="20" viewBox="0 0 21 20" fill="none" xmlns="http://www.w3.org/2000/svg">
<path fill-rule="evenodd" clip-rule="evenodd" d="M11.1051 3.77912C9.66397 3.6373 8.21827 3.99965 7.01441 4.80442C5.81056 5.60918 4.92306 6.80655 4.50319 8.19242C4.08333 9.57829 4.15709 11.0669 4.71191 12.4045C5.26672 13.742 6.26824 14.8458 7.54576 15.5276C8.82328 16.2094 10.2977 16.4271 11.7178 16.1435C13.1378 15.8599 14.4155 15.0926 15.3331 13.9724C16.1182 13.014 16.5981 11.8482 16.7194 10.6246H10.5C10.1548 10.6246 9.875 10.3448 9.875 9.99964C9.875 9.65446 10.1548 9.37464 10.5 9.37464H17.375C17.7199 9.37464 17.9996 9.65406 18 9.99899C18.0018 11.7363 17.4011 13.4205 16.3001 14.7645C15.1992 16.1085 13.6662 17.029 11.9626 17.3693C10.2589 17.7095 8.48992 17.4484 6.95721 16.6304C5.42451 15.8124 4.22293 14.4881 3.55729 12.8834C2.89165 11.2786 2.80316 9.49269 3.30689 7.82999C3.81062 6.16729 4.8754 4.73075 6.31973 3.76523C7.76406 2.79971 9.49853 2.36498 11.2275 2.53513C12.9565 2.70529 14.5729 3.4698 15.8013 4.69835C16.0454 4.94244 16.0454 5.33817 15.8013 5.58223C15.5572 5.8263 15.1615 5.82627 14.9174 5.58218C13.8935 4.55817 12.5462 3.92095 11.1051 3.77912Z" fill="#C70404"/>
</svg>
