<svg width="21" height="20" viewBox="0 0 21 20" fill="none" xmlns="http://www.w3.org/2000/svg">
<path fill-rule="evenodd" clip-rule="evenodd" d="M3.8335 10.0003C3.8335 9.54009 4.20659 9.16699 4.66683 9.16699H16.3335C16.7937 9.16699 17.1668 9.54009 17.1668 10.0003C17.1668 10.4606 16.7937 10.8337 16.3335 10.8337H4.66683C4.20659 10.8337 3.8335 10.4606 3.8335 10.0003Z" fill="white"/>
<path fill-rule="evenodd" clip-rule="evenodd" d="M9.91058 3.57709C10.236 3.25165 10.7637 3.25165 11.0891 3.57709L16.9224 9.41042C17.2479 9.73586 17.2479 10.2635 16.9224 10.5889L11.0891 16.4223C10.7637 16.7477 10.236 16.7477 9.91058 16.4223C9.58514 16.0968 9.58514 15.5692 9.91058 15.2438L15.1547 9.99967L9.91058 4.7556C9.58514 4.43016 9.58514 3.90252 9.91058 3.57709Z" fill="white"/>
</svg>
