<svg width="32" height="32" viewBox="0 0 32 32" fill="none" xmlns="http://www.w3.org/2000/svg">
<path fill-rule="evenodd" clip-rule="evenodd" d="M15.6108 8.39052C16.1315 8.91122 16.1315 9.75544 15.6108 10.2761L9.88692 16L15.6108 21.7239C16.1315 22.2446 16.1315 23.0888 15.6108 23.6095C15.0901 24.1302 14.2459 24.1302 13.7252 23.6095L7.05849 16.9428C6.53779 16.4221 6.53779 15.5779 7.05849 15.0572L13.7252 8.39052C14.2459 7.86983 15.0901 7.86983 15.6108 8.39052Z" fill="#03204C"/>
<path fill-rule="evenodd" clip-rule="evenodd" d="M24.9428 8.39052C25.4635 8.91122 25.4635 9.75544 24.9428 10.2761L19.219 16L24.9428 21.7239C25.4635 22.2446 25.4635 23.0888 24.9428 23.6095C24.4221 24.1302 23.5779 24.1302 23.0572 23.6095L16.3905 16.9428C15.8698 16.4221 15.8698 15.5779 16.3905 15.0572L23.0572 8.39052C23.5779 7.86983 24.4221 7.86983 24.9428 8.39052Z" fill="#03204C"/>
</svg>
