<svg width="16" height="17" viewBox="0 0 16 17" fill="none" xmlns="http://www.w3.org/2000/svg">
<path fill-rule="evenodd" clip-rule="evenodd" d="M5.5 4.5C5.5 4.22386 5.72386 4 6 4H13.5C13.7761 4 14 4.22386 14 4.5C14 4.77614 13.7761 5 13.5 5H6C5.72386 5 5.5 4.77614 5.5 4.5Z" fill="white"/>
<path fill-rule="evenodd" clip-rule="evenodd" d="M5.5 8.5C5.5 8.22386 5.72386 8 6 8H13.5C13.7761 8 14 8.22386 14 8.5C14 8.77614 13.7761 9 13.5 9H6C5.72386 9 5.5 8.77614 5.5 8.5Z" fill="white"/>
<path fill-rule="evenodd" clip-rule="evenodd" d="M5.5 12.5C5.5 12.2239 5.72386 12 6 12H13.5C13.7761 12 14 12.2239 14 12.5C14 12.7761 13.7761 13 13.5 13H6C5.72386 13 5.5 12.7761 5.5 12.5Z" fill="white"/>
<path fill-rule="evenodd" clip-rule="evenodd" d="M2 4.5C2 4.22386 2.22386 4 2.5 4H3.5C3.77614 4 4 4.22386 4 4.5C4 4.77614 3.77614 5 3.5 5H2.5C2.22386 5 2 4.77614 2 4.5Z" fill="white"/>
<path fill-rule="evenodd" clip-rule="evenodd" d="M2 8.5C2 8.22386 2.22386 8 2.5 8H3.5C3.77614 8 4 8.22386 4 8.5C4 8.77614 3.77614 9 3.5 9H2.5C2.22386 9 2 8.77614 2 8.5Z" fill="white"/>
<path fill-rule="evenodd" clip-rule="evenodd" d="M2 12.5C2 12.2239 2.22386 12 2.5 12H3.5C3.77614 12 4 12.2239 4 12.5C4 12.7761 3.77614 13 3.5 13H2.5C2.22386 13 2 12.7761 2 12.5Z" fill="white"/>
</svg>
