<svg width="20" height="20" viewBox="0 0 20 20" fill="none" xmlns="http://www.w3.org/2000/svg">
<path fill-rule="evenodd" clip-rule="evenodd" d="M4.06797 4.3998C3.62614 4.3998 3.26797 4.75798 3.26797 5.1998V16.3998C3.26797 16.8416 3.62614 17.1998 4.06797 17.1998H15.268C15.7098 17.1998 16.068 16.8416 16.068 16.3998V5.1998C16.068 4.75798 15.7098 4.3998 15.268 4.3998H4.06797ZM1.66797 5.1998C1.66797 3.87432 2.74249 2.7998 4.06797 2.7998H15.268C16.5935 2.7998 17.668 3.87432 17.668 5.1998V16.3998C17.668 17.7253 16.5935 18.7998 15.268 18.7998H4.06797C2.74249 18.7998 1.66797 17.7253 1.66797 16.3998V5.1998Z" fill="#03204C"/>
<path fill-rule="evenodd" clip-rule="evenodd" d="M12.8664 1.19971C13.3082 1.19971 13.6664 1.55788 13.6664 1.99971V5.19971C13.6664 5.64153 13.3082 5.99971 12.8664 5.99971C12.4246 5.99971 12.0664 5.64153 12.0664 5.19971V1.99971C12.0664 1.55788 12.4246 1.19971 12.8664 1.19971Z" fill="#03204C"/>
<path fill-rule="evenodd" clip-rule="evenodd" d="M6.46797 1.19971C6.9098 1.19971 7.26797 1.55788 7.26797 1.99971V5.19971C7.26797 5.64153 6.9098 5.99971 6.46797 5.99971C6.02614 5.99971 5.66797 5.64153 5.66797 5.19971V1.99971C5.66797 1.55788 6.02614 1.19971 6.46797 1.19971Z" fill="#03204C"/>
<path fill-rule="evenodd" clip-rule="evenodd" d="M1.66797 8.4001C1.66797 7.95827 2.02614 7.6001 2.46797 7.6001H16.868C17.3098 7.6001 17.668 7.95827 17.668 8.4001C17.668 8.84193 17.3098 9.2001 16.868 9.2001H2.46797C2.02614 9.2001 1.66797 8.84193 1.66797 8.4001Z" fill="#03204C"/>
</svg>
