<svg width="13" height="12" viewBox="0 0 13 12" fill="none" xmlns="http://www.w3.org/2000/svg">
<path fill-rule="evenodd" clip-rule="evenodd" d="M1.5278 3.10983C1.67425 2.96339 1.91169 2.96339 2.05813 3.10983L5.16797 6.21967L6.7778 4.60984C6.92425 4.46339 7.16169 4.46339 7.30813 4.60984L11.8081 9.10984C11.9546 9.25628 11.9546 9.49372 11.8081 9.64017C11.6617 9.78661 11.4243 9.78661 11.2778 9.64017L7.04297 5.40533L5.43313 7.01516C5.28669 7.16161 5.04925 7.16161 4.9028 7.01516L1.5278 3.64017C1.38136 3.49372 1.38136 3.25628 1.5278 3.10983Z" fill="#C70404"/>
<path fill-rule="evenodd" clip-rule="evenodd" d="M11.543 6C11.7501 6 11.918 6.16789 11.918 6.375V9.375C11.918 9.58211 11.7501 9.75 11.543 9.75H8.54297C8.33586 9.75 8.16797 9.58211 8.16797 9.375C8.16797 9.16789 8.33586 9 8.54297 9H11.168V6.375C11.168 6.16789 11.3359 6 11.543 6Z" fill="#C70404"/>
</svg>
