<svg width="20" height="20" viewBox="0 0 20 20" fill="none" xmlns="http://www.w3.org/2000/svg">
<path fill-rule="evenodd" clip-rule="evenodd" d="M3.3335 10.0003C3.3335 9.54009 3.70659 9.16699 4.16683 9.16699H15.8335C16.2937 9.16699 16.6668 9.54009 16.6668 10.0003C16.6668 10.4606 16.2937 10.8337 15.8335 10.8337H4.16683C3.70659 10.8337 3.3335 10.4606 3.3335 10.0003Z" fill="white"/>
<path fill-rule="evenodd" clip-rule="evenodd" d="M10.5894 3.57709C10.9149 3.90252 10.9149 4.43016 10.5894 4.7556L5.34534 9.99967L10.5894 15.2438C10.9149 15.5692 10.9149 16.0968 10.5894 16.4223C10.264 16.7477 9.73634 16.7477 9.41091 16.4223L3.57757 10.5889C3.25214 10.2635 3.25214 9.73586 3.57757 9.41042L9.41091 3.57709C9.73634 3.25165 10.264 3.25165 10.5894 3.57709Z" fill="white"/>
</svg>
