<svg width="16" height="17" viewBox="0 0 16 17" fill="none" xmlns="http://www.w3.org/2000/svg">
<path fill-rule="evenodd" clip-rule="evenodd" d="M2 4.5C2 4.22386 2.22386 4 2.5 4H13.5C13.7761 4 14 4.22386 14 4.5C14 4.77614 13.7761 5 13.5 5H2.5C2.22386 5 2 4.77614 2 4.5Z" fill="white"/>
<path fill-rule="evenodd" clip-rule="evenodd" d="M2 8.5C2 8.22386 2.22386 8 2.5 8H13.5C13.7761 8 14 8.22386 14 8.5C14 8.77614 13.7761 9 13.5 9H2.5C2.22386 9 2 8.77614 2 8.5Z" fill="white"/>
<path fill-rule="evenodd" clip-rule="evenodd" d="M2 12.5C2 12.2239 2.22386 12 2.5 12H9C9.27614 12 9.5 12.2239 9.5 12.5C9.5 12.7761 9.27614 13 9 13H2.5C2.22386 13 2 12.7761 2 12.5Z" fill="white"/>
<path fill-rule="evenodd" clip-rule="evenodd" d="M11 12.5C11 12.2239 11.2239 12 11.5 12H14.5C14.7761 12 15 12.2239 15 12.5C15 12.7761 14.7761 13 14.5 13H11.5C11.2239 13 11 12.7761 11 12.5Z" fill="white"/>
<path fill-rule="evenodd" clip-rule="evenodd" d="M13 10.5C13.2761 10.5 13.5 10.7239 13.5 11V14C13.5 14.2761 13.2761 14.5 13 14.5C12.7239 14.5 12.5 14.2761 12.5 14V11C12.5 10.7239 12.7239 10.5 13 10.5Z" fill="white"/>
</svg>
