<svg width="13" height="12" viewBox="0 0 13 12" fill="none" xmlns="http://www.w3.org/2000/svg">
<path fill-rule="evenodd" clip-rule="evenodd" d="M11.8081 2.35983C11.9546 2.50628 11.9546 2.74372 11.8081 2.89017L7.30813 7.39016C7.16169 7.53661 6.92425 7.53661 6.7778 7.39016L5.16797 5.78033L2.05813 8.89017C1.91169 9.03661 1.67425 9.03661 1.5278 8.89017C1.38136 8.74372 1.38136 8.50628 1.5278 8.35984L4.9028 4.98484C5.04925 4.83839 5.28669 4.83839 5.43313 4.98484L7.04297 6.59467L11.2778 2.35983C11.4243 2.21339 11.6617 2.21339 11.8081 2.35983Z" fill="#A87F05"/>
<path fill-rule="evenodd" clip-rule="evenodd" d="M8.16797 2.625C8.16797 2.41789 8.33586 2.25 8.54297 2.25H11.543C11.7501 2.25 11.918 2.41789 11.918 2.625V5.625C11.918 5.83211 11.7501 6 11.543 6C11.3359 6 11.168 5.83211 11.168 5.625V3H8.54297C8.33586 3 8.16797 2.83211 8.16797 2.625Z" fill="#A87F05"/>
</svg>
