<svg width="16" height="17" viewBox="0 0 16 17" fill="none" xmlns="http://www.w3.org/2000/svg">
<path fill-rule="evenodd" clip-rule="evenodd" d="M0.976311 10.8098C1.60143 10.1847 2.44928 9.8335 3.33333 9.8335H8.66667C9.55072 9.8335 10.3986 10.1847 11.0237 10.8098C11.6488 11.4349 12 12.2828 12 13.1668V14.5002C12 14.8684 11.7015 15.1668 11.3333 15.1668C10.9651 15.1668 10.6667 14.8684 10.6667 14.5002V13.1668C10.6667 12.6364 10.456 12.1277 10.0809 11.7526C9.70581 11.3775 9.1971 11.1668 8.66667 11.1668H3.33333C2.8029 11.1668 2.29419 11.3775 1.91912 11.7526C1.54405 12.1277 1.33333 12.6364 1.33333 13.1668V14.5002C1.33333 14.8684 1.03486 15.1668 0.666667 15.1668C0.298477 15.1668 0 14.8684 0 14.5002V13.1668C0 12.2828 0.35119 11.4349 0.976311 10.8098Z" fill="white"/>
<path fill-rule="evenodd" clip-rule="evenodd" d="M6.0013 3.16683C4.89673 3.16683 4.0013 4.06226 4.0013 5.16683C4.0013 6.2714 4.89673 7.16683 6.0013 7.16683C7.10587 7.16683 8.0013 6.2714 8.0013 5.16683C8.0013 4.06226 7.10587 3.16683 6.0013 3.16683ZM2.66797 5.16683C2.66797 3.32588 4.16035 1.8335 6.0013 1.8335C7.84225 1.8335 9.33464 3.32588 9.33464 5.16683C9.33464 7.00778 7.84225 8.50016 6.0013 8.50016C4.16035 8.50016 2.66797 7.00778 2.66797 5.16683Z" fill="white"/>
<path fill-rule="evenodd" clip-rule="evenodd" d="M12.6893 10.4201C12.7813 10.0636 13.145 9.84921 13.5015 9.94125C14.2166 10.1259 14.8501 10.5428 15.3026 11.1265C15.7551 11.7102 16.0009 12.4277 16.0015 13.1663L16.0015 14.5001C16.0015 14.8683 15.703 15.1668 15.3348 15.1668C14.9666 15.1668 14.6681 14.8683 14.6681 14.5001L14.6681 13.1672C14.6681 13.1672 14.6681 13.1673 14.6681 13.1672C14.6678 12.7242 14.5203 12.2936 14.2488 11.9434C13.9773 11.5932 13.5972 11.343 13.1681 11.2322C12.8116 11.1402 12.5973 10.7766 12.6893 10.4201Z" fill="white"/>
<path fill-rule="evenodd" clip-rule="evenodd" d="M10.021 2.42139C10.1123 2.06471 10.4755 1.84959 10.8322 1.94092C11.5492 2.1245 12.1847 2.5415 12.6386 3.12617C13.0924 3.71085 13.3387 4.42994 13.3387 5.17008C13.3387 5.91022 13.0924 6.62932 12.6386 7.21399C12.1847 7.79866 11.5492 8.21566 10.8322 8.39925C10.4755 8.49057 10.1123 8.27546 10.021 7.91878C9.92967 7.56209 10.1448 7.19891 10.5015 7.10758C10.9317 6.99743 11.313 6.74723 11.5853 6.39643C11.8576 6.04562 12.0054 5.61417 12.0054 5.17008C12.0054 4.726 11.8576 4.29454 11.5853 3.94374C11.313 3.59293 10.9317 3.34273 10.5015 3.23258C10.1448 3.14126 9.92967 2.77807 10.021 2.42139Z" fill="white"/>
</svg>
